<svg id="svg" version="1.1" xmlns="http://www.w3.org/2000/svg" xmlns:xlink="http://www.w3.org/1999/xlink" width="400" height="400" viewBox="0, 0, 400,400"><g id="svgg"><path id="path0" d="M0.000 200.000 L 0.000 400.000 200.000 400.000 L 400.000 400.000 400.000 200.000 L 400.000 0.000 200.000 0.000 L 0.000 0.000 0.000 200.000 M235.203 65.409 C 235.457 66.077,235.997 66.499,236.802 66.660 C 238.423 66.985,238.713 67.579,237.664 68.429 C 237.069 68.910,236.800 69.576,236.800 70.564 C 236.800 72.053,236.106 72.435,234.846 71.637 C 234.504 71.420,233.756 71.510,232.889 71.872 L 231.486 72.458 231.715 71.047 C 231.885 69.996,231.741 69.378,231.146 68.622 C 230.296 67.541,230.436 66.800,231.492 66.800 C 232.301 66.800,233.600 65.653,233.600 64.938 C 233.600 64.003,234.803 64.356,235.203 65.409 M215.326 73.609 C 216.157 74.784,216.733 75.202,217.526 75.206 C 219.550 75.218,219.921 75.821,218.693 77.103 C 217.831 78.002,217.600 78.627,217.600 80.055 C 217.600 82.331,217.425 82.494,215.804 81.721 C 214.609 81.151,214.320 81.152,212.627 81.729 L 210.765 82.363 210.854 80.648 C 210.924 79.299,210.702 78.618,209.816 77.456 C 208.533 75.775,208.613 75.569,210.678 75.234 C 211.879 75.039,212.317 74.704,212.953 73.496 C 213.924 71.653,213.943 71.653,215.326 73.609 M201.600 85.000 C 201.600 88.389,201.902 88.713,202.904 86.400 C 203.638 84.708,204.800 84.229,204.800 85.619 C 204.800 86.070,204.445 87.174,204.010 88.074 C 203.020 90.123,203.312 90.659,204.830 89.579 C 206.566 88.342,206.828 89.512,205.255 91.480 C 202.855 94.481,200.792 98.813,200.347 101.784 C 199.773 105.618,198.435 110.666,197.487 112.578 C 196.877 113.808,196.803 114.313,197.152 114.872 C 197.975 116.190,196.626 120.393,194.607 122.800 C 189.683 128.671,188.923 139.499,192.807 148.450 C 194.808 153.061,195.071 153.689,195.740 155.467 C 196.929 158.628,197.600 162.460,197.600 166.096 C 197.600 170.041,197.412 170.853,195.311 176.000 C 194.548 177.870,193.761 180.075,193.562 180.900 C 193.363 181.725,193.020 183.120,192.800 184.000 C 192.132 186.672,191.702 188.503,191.249 190.600 C 191.011 191.700,190.442 194.310,189.985 196.400 C 189.528 198.490,189.025 200.920,188.867 201.800 C 188.621 203.174,188.384 203.464,187.190 203.852 C 184.538 204.713,184.471 210.672,187.118 210.244 C 191.129 209.596,204.463 209.184,212.000 209.474 C 216.510 209.648,220.558 209.793,220.995 209.795 C 222.396 209.804,222.178 208.478,220.629 207.564 C 219.386 206.831,219.200 206.521,219.200 205.191 C 219.200 203.755,219.022 202.667,217.894 197.200 C 217.644 195.990,217.011 193.830,216.486 192.400 C 214.785 187.760,213.324 182.759,212.360 178.276 C 211.636 174.904,212.587 171.240,216.223 163.400 C 219.103 157.192,219.481 149.969,217.161 145.505 C 216.962 145.123,216.800 144.626,216.800 144.401 C 216.800 144.175,216.102 142.958,215.249 141.695 C 213.158 138.600,212.481 136.666,213.189 135.813 C 213.595 135.324,213.616 134.963,213.277 134.286 C 212.450 132.637,211.200 128.275,211.198 127.034 C 211.193 124.368,209.106 119.294,206.935 116.669 C 205.613 115.071,205.767 113.527,207.113 114.873 C 207.884 115.644,208.189 114.879,207.677 113.462 C 207.415 112.736,207.200 111.931,207.200 111.672 C 207.200 110.810,208.414 111.185,208.785 112.161 C 209.566 114.216,210.120 113.820,209.820 111.421 C 209.559 109.333,209.599 109.141,210.267 109.270 C 210.794 109.371,211.064 109.890,211.228 111.113 C 211.561 113.598,212.251 114.066,212.594 112.038 C 212.928 110.060,213.600 109.868,213.600 111.750 C 213.600 115.074,214.425 116.415,215.600 115.000 C 216.981 113.336,217.051 114.557,215.823 118.906 C 214.929 122.071,215.653 124.996,218.374 129.209 C 219.158 130.425,219.995 131.775,220.233 132.209 C 220.471 132.644,221.045 133.173,221.508 133.384 C 221.972 133.596,222.444 134.046,222.558 134.384 C 223.403 136.900,226.796 141.028,226.802 139.549 C 226.806 138.556,227.621 136.037,228.115 135.490 C 228.382 135.194,229.203 134.306,229.940 133.516 C 231.234 132.128,231.262 132.029,230.759 130.637 C 229.719 127.762,235.522 123.691,240.106 124.080 C 245.072 124.501,255.739 134.209,259.177 141.436 C 261.032 145.334,262.018 146.505,264.200 147.397 C 264.963 147.709,264.965 147.732,264.247 147.901 C 263.337 148.116,261.785 147.387,260.300 146.044 L 259.200 145.050 259.200 146.069 C 259.200 147.038,260.791 149.823,261.751 150.532 C 262.001 150.717,261.667 150.751,261.000 150.608 C 259.379 150.261,256.800 146.586,256.800 144.623 C 256.800 143.589,254.608 138.575,253.988 138.192 C 253.747 138.043,253.232 138.209,252.843 138.561 C 252.455 138.912,251.782 139.200,251.347 139.200 C 250.815 139.200,250.225 139.820,249.537 141.100 C 248.941 142.210,247.619 143.693,246.358 144.666 C 245.171 145.582,243.504 146.980,242.653 147.772 C 241.143 149.178,241.078 149.198,239.892 148.606 C 238.666 147.995,236.736 147.798,236.294 148.239 C 235.961 148.572,236.401 149.600,236.876 149.600 C 237.728 149.600,241.605 153.804,242.542 155.743 C 244.163 159.099,245.599 162.877,245.385 163.224 C 245.275 163.402,245.436 164.234,245.741 165.074 C 246.047 165.913,246.506 167.719,246.761 169.086 C 247.576 173.449,249.578 176.257,253.180 178.093 C 255.381 179.214,255.732 180.000,254.033 180.000 C 252.472 180.000,252.459 180.632,253.984 182.415 C 255.843 184.590,255.614 185.434,253.562 183.973 C 252.136 182.958,252.088 183.354,253.400 185.286 C 255.349 188.154,254.457 188.952,252.260 186.307 C 250.861 184.623,249.942 184.397,250.768 185.939 C 251.345 187.019,251.321 188.507,250.729 188.310 C 250.259 188.153,250.158 187.995,249.179 185.900 C 248.532 184.517,248.000 184.487,248.000 185.833 C 248.000 187.878,247.005 186.519,246.487 183.768 C 246.200 182.246,245.857 180.460,245.725 179.800 C 245.592 179.140,244.635 177.340,243.598 175.800 C 242.561 174.260,241.234 172.055,240.650 170.900 C 239.962 169.541,239.333 168.800,238.868 168.800 C 238.474 168.800,237.751 168.260,237.263 167.600 C 235.992 165.880,234.254 165.926,233.444 167.700 C 231.591 171.758,231.689 173.746,234.050 180.087 C 235.140 183.013,235.200 183.509,235.200 189.568 C 235.200 193.380,235.382 196.414,235.651 197.081 C 235.898 197.697,236.424 198.920,236.819 199.800 C 237.708 201.783,237.969 202.956,238.225 206.117 C 238.580 210.510,239.989 213.026,242.317 213.423 C 243.132 213.562,244.340 213.835,245.000 214.030 C 245.660 214.224,247.550 214.765,249.200 215.232 C 250.850 215.699,252.560 216.223,253.000 216.397 C 253.440 216.571,254.700 216.984,255.800 217.314 C 261.598 219.058,272.631 224.032,282.000 229.125 C 286.651 231.653,297.918 239.415,297.518 239.815 C 297.302 240.031,295.435 239.097,293.338 237.723 C 290.109 235.607,277.638 229.468,272.800 227.613 C 270.930 226.896,268.637 225.970,267.704 225.555 C 266.772 225.140,265.851 224.800,265.658 224.800 C 265.465 224.800,264.428 224.459,263.353 224.043 C 261.179 223.200,258.451 222.463,252.800 221.193 C 250.710 220.723,248.084 220.082,246.965 219.769 C 244.706 219.138,241.761 219.015,241.437 219.539 C 241.322 219.726,242.256 220.106,243.514 220.383 C 247.453 221.253,253.721 223.475,261.000 226.583 C 263.420 227.617,265.760 228.564,266.200 228.689 C 266.640 228.814,267.180 229.053,267.400 229.220 C 267.620 229.387,269.223 230.260,270.963 231.158 C 274.613 233.044,275.064 233.379,273.399 232.971 C 272.740 232.809,272.140 232.524,272.067 232.338 C 271.993 232.152,271.518 232.000,271.010 232.000 C 270.503 232.000,269.303 231.644,268.344 231.209 C 267.385 230.774,266.283 230.414,265.896 230.409 C 265.508 230.404,264.428 230.052,263.496 229.626 C 262.563 229.200,260.450 228.479,258.800 228.024 C 257.150 227.568,255.260 227.041,254.600 226.852 C 250.746 225.748,244.441 224.189,241.400 223.588 C 240.080 223.327,238.478 222.953,237.840 222.757 C 237.202 222.561,235.762 222.414,234.640 222.432 C 232.474 222.465,232.464 222.458,236.320 223.622 C 239.174 224.484,238.825 224.946,235.559 224.629 C 217.887 222.913,192.897 222.806,180.200 224.391 C 178.660 224.583,175.420 224.950,173.000 225.205 C 170.580 225.460,166.800 225.938,164.600 226.266 C 158.230 227.216,156.800 227.334,156.800 226.912 C 156.800 226.697,157.655 226.239,158.700 225.893 C 159.745 225.548,161.500 224.954,162.600 224.573 C 163.700 224.192,164.851 223.813,165.157 223.731 C 165.464 223.649,165.600 223.466,165.459 223.326 C 165.319 223.186,164.528 223.263,163.702 223.498 C 162.876 223.734,161.030 224.134,159.600 224.387 C 158.170 224.640,156.460 225.005,155.800 225.197 C 155.140 225.389,153.790 225.763,152.800 226.029 C 150.294 226.702,143.800 228.745,141.400 229.616 C 136.653 231.338,130.543 233.691,129.861 234.058 C 128.825 234.616,128.498 234.116,129.429 233.398 C 129.853 233.071,132.630 231.592,135.600 230.111 C 140.666 227.584,142.189 225.872,137.543 227.926 C 136.584 228.350,133.190 229.835,130.000 231.226 C 122.658 234.427,115.141 238.296,110.904 241.054 C 107.476 243.285,107.200 243.420,107.200 242.865 C 107.200 240.739,130.234 226.859,139.800 223.221 C 141.120 222.719,142.963 221.969,143.896 221.554 C 144.828 221.139,145.724 220.800,145.887 220.800 C 146.482 220.800,151.818 218.674,152.400 218.205 C 152.730 217.939,153.900 217.493,155.000 217.214 C 158.036 216.442,159.112 215.910,159.542 214.967 C 159.758 214.495,160.831 212.869,161.928 211.354 C 164.434 207.893,165.283 205.457,165.396 201.400 C 165.482 198.305,166.282 195.076,167.382 193.379 C 168.882 191.067,170.588 183.510,170.218 180.816 C 169.342 174.429,169.363 174.273,171.688 169.400 C 175.868 160.640,171.193 147.133,166.645 154.831 C 166.250 155.500,165.614 156.000,165.159 156.000 C 164.674 156.000,164.097 156.497,163.681 157.272 C 163.307 157.972,161.606 160.627,159.902 163.172 C 158.198 165.718,156.803 168.073,156.802 168.406 C 156.801 168.739,156.440 169.996,156.000 171.200 C 155.560 172.404,155.200 174.314,155.200 175.445 C 155.200 176.678,154.985 177.681,154.663 177.948 C 154.000 178.498,153.600 178.141,153.600 177.000 C 153.600 176.523,153.482 176.015,153.337 175.870 C 152.966 175.499,152.000 176.379,152.000 177.087 C 152.000 177.849,150.471 180.000,149.929 180.000 C 149.509 180.000,149.648 178.239,150.205 176.500 C 150.713 174.915,149.698 175.504,147.965 177.800 C 145.271 181.368,144.523 180.046,147.023 176.137 C 148.723 173.480,148.576 173.067,146.529 174.754 C 143.461 177.283,143.172 176.108,146.023 172.696 C 148.173 170.122,148.149 169.618,145.871 169.606 C 143.981 169.596,144.745 168.424,147.600 166.956 C 152.175 164.602,154.428 161.202,155.646 154.812 C 155.917 153.389,156.376 151.769,156.667 151.212 C 156.957 150.655,157.196 149.622,157.198 148.915 C 157.205 144.912,161.766 136.844,165.880 133.555 C 168.100 131.781,168.133 131.485,166.158 131.081 C 165.301 130.906,164.087 130.658,163.461 130.530 C 161.315 130.092,156.751 127.587,154.834 125.793 C 152.842 123.930,152.000 123.575,152.000 124.600 C 152.000 124.930,151.823 125.200,151.608 125.200 C 151.076 125.200,150.665 123.420,150.905 122.161 C 151.041 121.451,150.901 121.067,150.451 120.909 C 148.900 120.367,147.200 118.730,147.200 117.780 C 147.200 116.723,147.577 116.537,148.285 117.245 C 149.050 118.010,149.493 117.297,149.684 114.992 C 150.221 108.519,156.533 101.287,164.151 98.415 C 165.188 98.024,165.279 97.844,165.076 96.591 C 164.864 95.287,164.918 95.202,165.925 95.229 C 168.655 95.303,170.846 97.738,171.116 100.996 C 171.238 102.461,171.532 103.393,171.974 103.713 C 172.344 103.981,173.201 105.010,173.878 106.000 C 174.556 106.990,176.042 108.700,177.181 109.800 C 180.029 112.551,180.800 114.166,180.800 117.384 C 180.800 121.220,180.908 121.142,185.341 114.100 C 185.930 113.165,186.653 112.400,186.949 112.400 C 187.436 112.400,190.400 108.395,190.400 107.738 C 190.400 107.587,190.647 107.179,190.948 106.831 C 194.229 103.052,195.384 96.672,193.630 92.016 C 192.553 89.155,193.098 88.517,195.281 90.083 C 196.259 90.785,196.446 90.406,196.739 87.128 C 197.051 83.624,198.108 82.873,198.325 86.000 C 198.514 88.707,199.066 88.769,199.599 86.142 C 200.628 81.074,201.600 80.520,201.600 85.000 M172.400 89.400 C 172.736 90.028,173.282 90.400,173.868 90.400 C 174.937 90.400,175.069 90.878,174.200 91.600 C 173.870 91.874,173.600 92.595,173.600 93.203 C 173.600 94.266,173.525 94.306,171.600 94.277 C 169.704 94.249,169.600 94.191,169.600 93.173 C 169.600 92.582,169.330 91.874,169.000 91.600 C 168.169 90.910,168.250 90.400,169.191 90.400 C 169.626 90.400,170.276 89.950,170.637 89.400 C 170.997 88.850,171.421 88.400,171.578 88.400 C 171.736 88.400,172.106 88.850,172.400 89.400 M226.658 94.201 C 227.538 95.081,227.171 96.179,225.949 96.322 C 224.628 96.475,224.050 94.956,225.119 94.143 C 225.980 93.488,225.944 93.487,226.658 94.201 M240.102 108.500 C 241.113 108.976,241.263 109.978,240.521 111.300 C 240.120 112.015,237.600 111.612,237.600 110.833 C 237.600 110.411,237.491 109.781,237.357 109.433 C 237.198 109.018,237.335 108.800,237.757 108.800 C 238.111 108.800,238.400 108.620,238.400 108.400 C 238.400 107.871,238.819 107.896,240.102 108.500 M267.761 119.137 C 268.154 119.773,266.836 121.135,266.031 120.924 C 264.940 120.639,264.662 119.616,265.441 118.755 C 266.087 118.041,267.197 118.224,267.761 119.137 M204.800 132.476 C 204.800 132.654,205.256 132.800,205.813 132.800 C 207.061 132.800,207.497 133.760,206.639 134.618 C 206.287 134.970,206.000 135.784,206.000 136.429 C 206.000 137.703,205.616 137.867,204.405 137.110 C 203.785 136.723,203.517 136.723,203.130 137.110 C 202.305 137.935,201.600 137.668,201.600 136.531 C 201.600 135.944,201.308 135.141,200.951 134.746 C 200.153 133.864,200.496 132.800,201.578 132.800 C 202.020 132.800,202.689 132.331,203.065 131.757 C 203.729 130.744,204.800 131.188,204.800 132.476 M206.804 158.208 C 207.457 159.428,206.945 160.132,205.550 159.934 C 204.370 159.766,204.059 158.438,205.033 157.726 C 206.019 157.005,206.185 157.050,206.804 158.208 M264.169 177.293 C 264.470 177.901,265.044 178.241,265.909 178.325 C 267.404 178.471,267.512 178.794,266.400 179.800 C 265.904 180.249,265.600 181.032,265.600 181.862 C 265.600 183.300,265.246 183.485,263.995 182.704 C 263.362 182.309,263.038 182.309,262.405 182.704 C 261.140 183.494,260.800 183.297,260.800 181.771 C 260.800 180.986,260.530 180.073,260.200 179.743 C 259.330 178.873,259.462 178.400,260.573 178.400 C 261.201 178.400,261.854 177.967,262.416 177.177 C 263.345 175.873,263.469 175.881,264.169 177.293 M176.607 201.444 C 176.273 202.244,176.000 203.024,176.000 203.179 C 176.000 203.850,174.058 205.200,173.093 205.200 C 171.624 205.200,168.000 210.474,168.000 212.612 C 168.000 213.780,167.789 213.751,170.680 212.989 C 171.956 212.653,174.350 212.187,176.000 211.954 C 179.869 211.408,180.000 211.278,180.000 207.982 C 180.000 202.099,177.969 198.185,176.607 201.444 M226.900 208.256 C 225.371 208.901,226.402 210.344,228.700 210.774 C 229.965 211.011,231.810 211.369,232.799 211.570 C 233.789 211.770,234.652 211.882,234.717 211.817 C 234.923 211.611,233.466 208.802,233.126 208.750 C 232.947 208.722,232.305 208.667,231.700 208.626 C 231.095 208.586,229.880 208.439,229.000 208.299 C 228.120 208.159,227.175 208.140,226.900 208.256 M230.600 222.000 C 230.736 222.220,231.207 222.400,231.647 222.400 C 232.087 222.400,232.336 222.220,232.200 222.000 C 232.064 221.780,231.593 221.600,231.153 221.600 C 230.713 221.600,230.464 221.780,230.600 222.000 M254.205 257.600 C 255.524 257.600,255.721 258.138,254.792 259.210 C 254.356 259.712,254.000 260.680,254.000 261.361 L 254.000 262.600 251.400 262.600 L 248.800 262.600 248.800 261.316 C 248.800 260.525,248.476 259.730,247.957 259.246 C 246.971 258.327,247.253 257.600,248.596 257.600 C 249.202 257.600,249.866 257.150,250.430 256.358 L 251.314 255.116 252.286 256.358 C 252.886 257.124,253.621 257.600,254.205 257.600 M71.300 261.357 C 72.692 262.413,72.246 265.138,70.566 265.840 C 67.183 267.254,64.144 264.201,66.470 261.726 C 67.467 260.664,70.120 260.461,71.300 261.357 M168.400 263.843 C 169.385 264.811,169.164 285.144,168.161 285.878 C 167.171 286.602,165.607 286.530,164.711 285.720 C 164.003 285.079,163.882 285.081,162.625 285.759 C 157.373 288.587,152.850 284.978,152.816 277.933 C 152.782 270.726,156.985 266.520,161.742 269.000 C 163.320 269.824,163.600 269.501,163.600 266.853 C 163.600 263.164,166.109 261.591,168.400 263.843 M80.243 263.900 C 81.307 265.302,81.008 285.009,79.911 285.777 C 78.626 286.677,77.308 286.544,76.162 285.399 L 75.161 284.397 75.280 274.459 C 75.373 266.762,75.524 264.372,75.949 263.861 C 76.708 262.947,79.540 262.973,80.243 263.900 M55.955 264.700 C 56.755 265.364,56.804 265.814,56.899 273.400 L 57.000 281.400 59.394 281.523 C 62.970 281.706,64.642 284.144,62.311 285.777 C 61.060 286.654,52.962 286.648,51.800 285.770 C 50.566 284.838,50.574 265.557,51.809 264.623 C 52.884 263.811,54.929 263.849,55.955 264.700 M125.838 264.495 C 130.214 265.665,131.039 270.853,127.323 273.835 L 126.200 274.736 127.247 275.138 C 132.145 277.019,130.791 284.278,125.231 285.943 C 121.928 286.933,114.567 286.539,113.609 285.321 C 112.378 283.756,112.509 266.224,113.762 264.841 C 114.672 263.837,122.534 263.611,125.838 264.495 M211.300 264.628 C 219.036 267.264,219.050 282.703,211.319 285.596 C 208.204 286.761,201.164 286.764,200.000 285.600 C 198.710 284.310,198.771 266.308,200.070 264.926 C 201.175 263.749,208.177 263.564,211.300 264.628 M118.562 268.554 C 117.778 270.598,118.575 272.598,120.222 272.719 C 123.157 272.935,125.113 270.331,123.269 268.662 C 122.341 267.823,118.873 267.743,118.562 268.554 M232.725 269.099 C 235.227 270.374,235.778 272.043,235.931 278.800 C 236.053 284.251,236.010 284.654,235.215 285.500 C 234.190 286.590,231.594 286.737,230.618 285.761 C 230.033 285.175,229.891 285.180,228.927 285.811 C 225.960 287.755,220.406 286.091,219.843 283.088 C 219.051 278.869,222.217 276.020,227.713 276.006 C 230.372 275.999,230.726 275.600,230.005 273.416 C 229.355 271.446,226.974 271.320,225.865 273.198 C 224.478 275.546,221.092 275.218,220.879 272.715 C 220.559 268.969,228.007 266.695,232.725 269.099 M270.395 269.135 C 273.028 270.391,274.387 273.667,272.938 275.269 C 271.855 276.465,270.576 276.172,269.152 274.400 C 265.996 270.473,263.600 272.772,263.943 279.400 C 264.116 282.745,267.062 283.828,269.056 281.280 C 270.622 279.279,273.602 279.607,273.599 281.780 C 273.588 287.807,261.442 288.364,258.965 282.451 C 255.345 273.810,262.562 265.401,270.395 269.135 M289.125 269.113 C 291.664 270.430,291.944 271.349,292.042 278.709 C 292.121 284.705,292.068 285.264,291.364 285.796 C 290.489 286.458,287.770 286.598,287.400 286.000 C 287.090 285.498,285.487 285.477,284.980 285.968 C 284.582 286.354,282.300 286.589,280.113 286.470 C 278.118 286.361,276.000 284.040,276.000 281.960 C 276.000 278.223,279.069 276.021,284.300 276.006 L 286.400 276.000 286.400 274.480 C 286.400 271.612,284.183 271.061,282.055 273.400 C 279.564 276.137,275.760 274.371,277.384 271.232 C 278.879 268.339,285.375 267.167,289.125 269.113 M306.945 269.055 C 309.116 271.225,307.562 274.561,304.591 274.109 C 302.066 273.724,301.444 274.861,301.204 280.301 C 300.941 286.276,299.515 287.971,296.600 285.771 C 295.660 285.061,295.141 272.446,295.963 270.293 C 296.797 268.108,300.416 268.117,300.728 270.304 C 300.895 271.473,301.051 271.439,302.293 269.962 C 303.274 268.796,304.435 268.083,305.445 268.025 C 305.690 268.011,306.365 268.475,306.945 269.055 M319.659 268.489 C 323.279 269.325,325.600 272.630,325.600 276.951 C 325.600 278.570,324.905 278.800,320.000 278.800 C 314.813 278.800,314.242 279.029,314.878 280.852 C 315.634 283.022,318.157 283.455,320.400 281.800 C 321.978 280.635,323.046 280.537,324.069 281.462 C 327.732 284.777,317.250 288.534,312.679 285.544 C 306.849 281.729,308.422 270.169,315.000 268.491 C 317.182 267.934,317.254 267.934,319.659 268.489 M185.102 269.530 C 186.799 270.739,187.224 272.690,186.004 273.677 C 184.780 274.668,184.247 274.592,182.661 273.200 C 180.279 271.109,176.750 271.864,177.999 274.198 C 178.392 274.933,179.063 275.280,180.759 275.627 C 186.109 276.719,187.200 277.598,187.200 280.816 C 187.200 284.945,185.019 286.566,179.518 286.522 C 175.518 286.490,173.763 285.759,172.973 283.793 C 171.801 280.877,174.656 279.585,176.935 282.000 C 178.133 283.269,179.765 283.568,181.226 282.786 C 183.013 281.830,181.427 279.200,179.064 279.200 C 173.395 279.200,170.130 272.641,174.315 269.660 C 176.506 268.100,182.984 268.022,185.102 269.530 M205.700 268.856 C 204.985 269.577,205.001 280.375,205.718 281.356 C 207.154 283.320,210.136 280.822,210.823 277.079 C 211.809 271.703,208.363 266.173,205.700 268.856 M244.300 269.307 C 244.653 269.583,244.800 271.186,244.800 274.760 C 244.800 280.284,245.216 281.600,246.961 281.600 C 248.924 281.600,249.389 280.368,249.531 274.782 C 249.677 269.099,249.828 268.748,252.170 268.682 C 255.011 268.601,255.200 269.152,255.200 277.516 C 255.200 290.670,252.640 294.654,244.403 294.319 C 238.674 294.086,238.165 290.011,243.813 289.595 C 247.802 289.301,249.428 288.171,249.881 285.380 L 250.127 283.860 248.476 285.187 C 245.303 287.737,240.708 286.740,239.670 283.276 C 238.948 280.867,239.047 270.796,239.804 269.716 C 240.668 268.483,242.978 268.272,244.300 269.307 M71.446 270.248 C 72.138 271.904,72.178 282.551,71.500 284.508 C 70.822 286.465,68.779 286.985,67.275 285.584 C 66.224 284.605,65.906 271.180,66.896 269.595 C 67.845 268.075,70.710 268.487,71.446 270.248 M89.586 269.574 C 89.814 269.999,90.003 272.384,90.006 274.874 C 90.013 280.145,90.415 281.341,92.243 281.520 C 94.205 281.713,94.495 280.967,94.772 274.994 C 95.053 268.968,95.179 268.697,97.636 268.874 C 100.349 269.070,100.488 269.584,100.262 278.600 C 100.035 287.643,99.691 289.105,97.200 291.611 C 93.346 295.489,85.600 295.583,85.600 291.752 C 85.600 290.074,86.435 289.600,89.394 289.600 C 92.062 289.600,93.763 288.819,94.593 287.213 C 95.281 285.884,95.402 284.000,94.800 284.000 C 94.580 284.000,94.399 284.135,94.397 284.300 C 94.372 287.099,86.703 286.978,85.263 284.156 C 84.572 282.803,84.475 270.274,85.149 269.462 C 85.963 268.480,89.042 268.558,89.586 269.574 M138.720 269.280 C 139.044 269.604,139.200 271.456,139.200 274.991 C 139.200 280.755,139.596 282.000,141.429 282.000 C 143.293 282.000,143.997 280.048,143.999 274.874 C 144.000 269.338,144.230 268.800,146.591 268.800 C 149.410 268.800,149.600 269.336,149.600 277.270 C 149.600 284.489,149.311 285.856,147.701 286.261 C 146.593 286.539,144.800 285.718,144.800 284.932 C 144.800 284.134,144.096 284.286,142.636 285.400 C 139.460 287.822,135.073 286.431,134.019 282.667 C 133.350 280.279,133.598 270.363,134.349 269.460 C 135.000 268.678,137.994 268.554,138.720 269.280 M315.702 272.500 C 313.918 274.753,314.529 276.000,317.414 276.000 C 319.710 276.000,320.295 275.097,319.183 273.269 C 318.358 271.911,316.494 271.500,315.702 272.500 M159.138 273.329 C 157.044 274.922,157.452 280.840,159.721 281.794 C 162.494 282.960,163.585 281.662,163.595 277.189 C 163.603 273.282,161.544 271.499,159.138 273.329 M118.567 276.542 C 118.452 276.840,118.413 278.235,118.479 279.642 L 118.600 282.200 120.627 282.318 C 124.754 282.559,126.417 278.325,122.926 276.465 C 121.707 275.816,118.826 275.867,118.567 276.542 M227.000 278.877 C 224.526 279.765,223.987 281.449,225.797 282.635 C 227.725 283.898,230.547 282.131,230.318 279.805 C 230.183 278.430,229.093 278.125,227.000 278.877 M283.264 278.945 C 281.563 279.561,280.964 280.564,281.542 281.833 C 282.803 284.599,287.315 282.255,286.527 279.243 C 286.277 278.286,285.325 278.198,283.264 278.945 " stroke="none" fill="#fbfbfb" fill-rule="evenodd"></path><path id="path1" d="M200.429 82.900 C 200.234 83.395,199.861 84.854,199.599 86.142 C 199.066 88.769,198.514 88.707,198.325 86.000 C 198.108 82.873,197.051 83.624,196.739 87.128 C 196.446 90.406,196.259 90.785,195.281 90.083 C 193.098 88.517,192.553 89.155,193.630 92.016 C 195.384 96.672,194.229 103.052,190.948 106.831 C 190.647 107.179,190.400 107.587,190.400 107.738 C 190.400 108.395,187.436 112.400,186.949 112.400 C 186.653 112.400,185.930 113.165,185.341 114.100 C 180.908 121.142,180.800 121.220,180.800 117.384 C 180.800 114.166,180.029 112.551,177.181 109.800 C 176.042 108.700,174.556 106.990,173.878 106.000 C 173.201 105.010,172.344 103.981,171.974 103.713 C 171.532 103.393,171.238 102.461,171.116 100.996 C 170.846 97.738,168.655 95.303,165.925 95.229 C 164.918 95.202,164.864 95.287,165.076 96.591 C 165.279 97.844,165.188 98.024,164.151 98.415 C 156.533 101.287,150.221 108.519,149.684 114.992 C 149.493 117.297,149.050 118.010,148.285 117.245 C 147.577 116.537,147.200 116.723,147.200 117.780 C 147.200 118.730,148.900 120.367,150.451 120.909 C 150.901 121.067,151.041 121.451,150.905 122.161 C 150.665 123.420,151.076 125.200,151.608 125.200 C 151.823 125.200,152.000 124.930,152.000 124.600 C 152.000 123.575,152.842 123.930,154.834 125.793 C 156.751 127.587,161.315 130.092,163.461 130.530 C 164.087 130.658,165.301 130.906,166.158 131.081 C 168.133 131.485,168.100 131.781,165.880 133.555 C 161.766 136.844,157.205 144.912,157.198 148.915 C 157.196 149.622,156.957 150.655,156.667 151.212 C 156.376 151.769,155.917 153.389,155.646 154.812 C 154.428 161.202,152.175 164.602,147.600 166.956 C 144.745 168.424,143.981 169.596,145.871 169.606 C 148.149 169.618,148.173 170.122,146.023 172.696 C 143.172 176.108,143.461 177.283,146.529 174.754 C 148.576 173.067,148.723 173.480,147.023 176.137 C 144.523 180.046,145.271 181.368,147.965 177.800 C 149.698 175.504,150.713 174.915,150.205 176.500 C 149.648 178.239,149.509 180.000,149.929 180.000 C 150.471 180.000,152.000 177.849,152.000 177.087 C 152.000 176.379,152.966 175.499,153.337 175.870 C 153.482 176.015,153.600 176.523,153.600 177.000 C 153.600 178.141,154.000 178.498,154.663 177.948 C 154.985 177.681,155.200 176.678,155.200 175.445 C 155.200 174.314,155.560 172.404,156.000 171.200 C 156.440 169.996,156.801 168.739,156.802 168.406 C 156.803 168.073,158.198 165.718,159.902 163.172 C 161.606 160.627,163.307 157.972,163.681 157.272 C 164.097 156.497,164.674 156.000,165.159 156.000 C 165.614 156.000,166.250 155.500,166.645 154.831 C 171.193 147.133,175.868 160.640,171.688 169.400 C 169.363 174.273,169.342 174.429,170.218 180.816 C 170.588 183.510,168.882 191.067,167.382 193.379 C 166.282 195.076,165.482 198.305,165.396 201.400 C 165.290 205.189,164.444 207.859,162.481 210.600 C 158.542 216.100,158.462 216.413,160.700 217.568 C 164.713 219.640,167.154 220.773,168.126 221.017 C 169.779 221.432,167.474 223.200,164.200 224.028 C 161.681 224.665,156.800 226.581,156.800 226.934 C 156.800 227.331,158.350 227.198,164.600 226.266 C 166.800 225.938,170.580 225.460,173.000 225.205 C 175.420 224.950,178.660 224.583,180.200 224.391 C 192.878 222.808,217.977 222.914,235.500 224.624 C 240.297 225.093,239.112 224.289,232.400 222.523 C 226.166 220.882,225.764 220.808,222.110 220.627 C 220.180 220.532,217.700 220.245,216.600 219.990 C 213.685 219.315,191.372 219.451,186.207 220.176 C 184.003 220.485,180.580 220.852,178.600 220.992 C 176.620 221.132,174.594 221.346,174.099 221.467 C 173.339 221.653,173.158 221.489,172.944 220.421 C 172.805 219.723,172.244 218.851,171.696 218.478 C 168.280 216.151,167.204 213.042,168.819 210.165 C 170.897 206.467,172.002 205.200,173.149 205.200 C 174.113 205.200,176.000 203.825,176.000 203.123 C 176.000 199.660,178.726 199.744,179.532 203.232 C 180.104 205.713,180.148 210.661,179.600 211.000 C 179.127 211.293,179.069 216.775,179.532 217.504 C 179.902 218.086,188.691 218.326,191.500 217.830 C 193.688 217.444,193.728 214.400,191.546 214.400 C 186.474 214.400,182.719 205.305,187.190 203.852 C 188.384 203.464,188.621 203.174,188.867 201.800 C 189.025 200.920,189.528 198.490,189.985 196.400 C 190.442 194.310,191.011 191.700,191.249 190.600 C 191.702 188.503,192.132 186.672,192.800 184.000 C 193.020 183.120,193.363 181.725,193.562 180.900 C 193.761 180.075,194.548 177.870,195.311 176.000 C 197.412 170.853,197.600 170.041,197.600 166.096 C 197.600 162.460,196.929 158.628,195.740 155.467 C 195.071 153.689,194.808 153.061,192.807 148.450 C 188.923 139.499,189.683 128.671,194.607 122.800 C 196.626 120.393,197.975 116.190,197.152 114.872 C 196.803 114.313,196.877 113.808,197.487 112.578 C 198.435 110.666,199.773 105.618,200.347 101.784 C 200.792 98.813,202.855 94.481,205.255 91.480 C 206.828 89.512,206.566 88.342,204.830 89.579 C 203.312 90.659,203.020 90.123,204.010 88.074 C 204.445 87.174,204.800 86.070,204.800 85.619 C 204.800 84.229,203.638 84.708,202.904 86.400 C 201.902 88.713,201.600 88.389,201.600 85.000 C 201.600 81.987,201.124 81.133,200.429 82.900 M238.400 108.400 C 238.400 108.620,238.111 108.800,237.757 108.800 C 237.335 108.800,237.198 109.018,237.357 109.433 C 237.491 109.781,237.600 110.411,237.600 110.833 C 237.600 111.612,240.120 112.015,240.521 111.300 C 241.263 109.978,241.113 108.976,240.102 108.500 C 238.819 107.896,238.400 107.871,238.400 108.400 M265.441 118.755 C 264.662 119.616,264.940 120.639,266.031 120.924 C 266.836 121.135,268.154 119.773,267.761 119.137 C 267.197 118.224,266.087 118.041,265.441 118.755 M66.470 261.726 C 64.144 264.201,67.183 267.254,70.566 265.840 C 72.246 265.138,72.692 262.413,71.300 261.357 C 70.120 260.461,67.467 260.664,66.470 261.726 M165.200 263.069 C 164.053 263.495,163.600 264.566,163.600 266.853 C 163.600 269.501,163.320 269.824,161.742 269.000 C 156.985 266.520,152.782 270.726,152.816 277.933 C 152.850 284.978,157.373 288.587,162.625 285.759 C 163.882 285.081,164.003 285.079,164.711 285.720 C 165.607 286.530,167.171 286.602,168.161 285.878 C 169.164 285.144,169.385 264.811,168.400 263.843 C 167.695 263.150,166.053 262.753,165.200 263.069 M75.949 263.861 C 75.524 264.372,75.373 266.762,75.280 274.459 L 75.161 284.397 76.162 285.399 C 77.308 286.544,78.626 286.677,79.911 285.777 C 81.008 285.009,81.307 265.302,80.243 263.900 C 79.540 262.973,76.708 262.947,75.949 263.861 M51.809 264.623 C 50.574 265.557,50.566 284.838,51.800 285.770 C 52.962 286.648,61.060 286.654,62.311 285.777 C 64.642 284.144,62.970 281.706,59.394 281.523 L 57.000 281.400 56.899 273.400 C 56.804 265.814,56.755 265.364,55.955 264.700 C 54.929 263.849,52.884 263.811,51.809 264.623 M113.762 264.841 C 112.509 266.224,112.378 283.756,113.609 285.321 C 114.567 286.539,121.928 286.933,125.231 285.943 C 130.791 284.278,132.145 277.019,127.247 275.138 L 126.200 274.736 127.323 273.835 C 131.039 270.853,130.214 265.665,125.838 264.495 C 122.534 263.611,114.672 263.837,113.762 264.841 M123.269 268.662 C 125.113 270.331,123.157 272.935,120.222 272.719 C 118.575 272.598,117.778 270.598,118.562 268.554 C 118.873 267.743,122.341 267.823,123.269 268.662 M176.405 268.672 C 169.816 270.052,172.127 279.200,179.064 279.200 C 181.427 279.200,183.013 281.830,181.226 282.786 C 179.765 283.568,178.133 283.269,176.935 282.000 C 174.656 279.585,171.801 280.877,172.973 283.793 C 173.763 285.759,175.518 286.490,179.518 286.522 C 185.019 286.566,187.200 284.945,187.200 280.816 C 187.200 277.598,186.109 276.719,180.759 275.627 C 179.063 275.280,178.392 274.933,177.999 274.198 C 176.750 271.864,180.279 271.109,182.661 273.200 C 184.836 275.110,187.174 274.213,186.618 271.682 C 186.059 269.138,181.125 267.684,176.405 268.672 M66.896 269.595 C 65.906 271.180,66.224 284.605,67.275 285.584 C 68.779 286.985,70.822 286.465,71.500 284.508 C 72.178 282.551,72.138 271.904,71.446 270.248 C 70.710 268.487,67.845 268.075,66.896 269.595 M85.149 269.462 C 84.475 270.274,84.572 282.803,85.263 284.156 C 86.703 286.978,94.372 287.099,94.397 284.300 C 94.399 284.135,94.580 284.000,94.800 284.000 C 95.402 284.000,95.281 285.884,94.593 287.213 C 93.763 288.819,92.062 289.600,89.394 289.600 C 86.435 289.600,85.600 290.074,85.600 291.752 C 85.600 295.583,93.346 295.489,97.200 291.611 C 99.691 289.105,100.035 287.643,100.262 278.600 C 100.488 269.584,100.349 269.070,97.636 268.874 C 95.179 268.697,95.053 268.968,94.772 274.994 C 94.495 280.967,94.205 281.713,92.243 281.520 C 90.415 281.341,90.013 280.145,90.006 274.874 C 90.003 272.384,89.814 269.999,89.586 269.574 C 89.042 268.558,85.963 268.480,85.149 269.462 M134.349 269.460 C 133.598 270.363,133.350 280.279,134.019 282.667 C 135.073 286.431,139.460 287.822,142.636 285.400 C 144.096 284.286,144.800 284.134,144.800 284.932 C 144.800 285.718,146.593 286.539,147.701 286.261 C 149.311 285.856,149.600 284.489,149.600 277.270 C 149.600 269.336,149.410 268.800,146.591 268.800 C 144.230 268.800,144.000 269.338,143.999 274.874 C 143.997 280.048,143.293 282.000,141.429 282.000 C 139.596 282.000,139.200 280.755,139.200 274.991 C 139.200 271.456,139.044 269.604,138.720 269.280 C 137.994 268.554,135.000 268.678,134.349 269.460 M162.977 273.689 C 164.354 275.655,163.701 281.347,162.032 281.929 C 159.096 282.952,156.939 279.540,158.010 275.564 C 158.761 272.775,161.589 271.707,162.977 273.689 M122.926 276.465 C 126.417 278.325,124.754 282.559,120.627 282.318 L 118.600 282.200 118.479 279.642 C 118.305 275.950,119.866 274.835,122.926 276.465 " stroke="none" fill="#1992d8" fill-rule="evenodd"></path><path id="path2" d="M170.867 90.638 C 169.893 91.320,169.746 93.590,170.656 93.888 C 171.730 94.240,173.278 92.258,172.837 91.097 C 172.354 89.826,172.108 89.769,170.867 90.638 M210.000 112.249 C 210.000 113.481,209.912 113.625,209.410 113.208 C 208.922 112.803,208.733 112.915,208.315 113.859 C 208.037 114.487,207.573 115.185,207.283 115.411 C 206.860 115.740,206.977 116.199,207.878 117.742 C 210.434 122.119,211.187 123.853,211.203 125.400 C 211.221 127.204,211.627 128.966,212.632 131.600 C 213.030 132.645,213.300 134.398,213.276 135.779 C 213.253 137.088,213.444 138.412,213.701 138.722 C 214.236 139.366,214.945 140.551,215.665 142.000 C 215.938 142.550,216.457 143.450,216.820 144.000 C 219.835 148.577,219.584 156.920,216.221 163.830 C 214.940 166.464,214.134 168.455,213.156 171.400 C 211.975 174.962,213.026 182.784,215.429 188.314 C 215.743 189.036,216.000 189.900,216.000 190.233 C 216.000 190.567,216.264 191.350,216.587 191.974 C 217.273 193.300,218.738 199.486,219.236 203.158 C 219.705 206.615,219.854 206.987,221.024 207.613 C 221.685 207.966,221.995 208.434,221.918 208.960 C 221.802 209.753,221.573 209.764,207.139 209.647 C 191.566 209.522,185.860 209.917,186.987 211.044 C 187.285 211.342,187.608 211.814,187.706 212.093 C 187.839 212.474,188.072 212.433,188.642 211.930 C 189.503 211.169,208.580 211.197,212.585 211.965 C 213.693 212.178,215.333 212.338,216.229 212.321 C 218.002 212.288,220.800 213.065,220.800 213.590 C 220.800 214.203,217.975 216.400,217.186 216.400 C 216.018 216.400,216.234 217.094,217.626 217.814 C 218.869 218.456,225.694 218.840,226.236 218.297 C 226.379 218.154,226.655 217.188,226.849 216.151 C 227.301 213.732,227.115 213.827,230.281 214.381 C 235.996 215.380,236.463 215.865,234.276 218.533 C 232.645 220.524,232.447 221.202,233.500 221.196 C 234.726 221.188,238.004 220.053,238.642 219.415 C 238.980 219.077,239.599 218.800,240.018 218.800 C 240.436 218.800,241.564 218.418,242.524 217.952 L 244.269 217.104 246.185 217.952 C 247.239 218.418,248.574 218.804,249.151 218.809 C 249.728 218.814,250.985 219.174,251.944 219.609 C 252.903 220.044,254.080 220.400,254.559 220.400 C 255.039 220.400,256.137 220.760,257.000 221.200 C 257.863 221.640,258.759 222.000,258.991 222.000 C 259.222 222.000,260.039 222.336,260.806 222.747 C 261.573 223.157,262.830 223.628,263.600 223.793 C 264.370 223.958,265.450 224.340,266.000 224.642 C 267.323 225.369,273.828 227.974,275.600 228.486 C 276.370 228.709,277.478 229.230,278.062 229.645 C 278.646 230.060,279.427 230.400,279.799 230.400 C 280.170 230.400,280.931 230.760,281.491 231.200 C 282.050 231.640,282.925 232.000,283.434 232.000 C 283.943 232.000,284.509 232.267,284.692 232.592 C 285.199 233.499,287.600 233.876,287.600 233.050 C 287.600 232.693,287.344 232.400,287.031 232.400 C 286.718 232.400,285.924 231.948,285.267 231.395 C 284.611 230.843,282.566 229.608,280.722 228.652 C 278.879 227.696,277.018 226.708,276.586 226.457 C 276.154 226.206,275.350 225.821,274.800 225.601 C 274.250 225.382,273.530 225.026,273.200 224.812 C 272.028 224.050,265.432 221.118,262.256 219.947 C 260.482 219.293,258.844 218.603,258.616 218.415 C 258.387 218.226,257.480 217.941,256.600 217.782 C 255.720 217.623,254.550 217.268,254.000 216.994 C 253.450 216.719,251.200 216.003,249.000 215.403 C 239.937 212.929,240.463 213.153,239.374 211.309 C 238.621 210.033,238.315 208.804,238.126 206.309 C 237.948 203.972,237.528 202.178,236.693 200.200 C 235.207 196.677,234.808 193.905,234.883 187.600 C 234.924 184.135,234.781 182.301,234.417 181.626 C 228.387 170.434,234.511 160.823,241.000 171.295 C 241.660 172.360,242.955 174.384,243.877 175.791 C 245.633 178.471,246.800 181.670,246.800 183.806 C 246.800 185.305,247.138 185.749,247.838 185.169 C 248.554 184.574,250.000 185.406,250.000 186.414 C 250.000 186.846,250.203 187.200,250.450 187.200 C 250.737 187.200,250.813 186.764,250.660 186.000 C 250.411 184.756,250.717 184.477,251.485 185.245 C 252.196 185.956,252.895 185.234,252.607 184.087 C 252.388 183.215,252.438 183.134,252.939 183.550 C 253.835 184.293,254.227 183.314,253.400 182.400 C 252.883 181.829,252.785 181.270,252.991 180.055 C 253.227 178.657,253.147 178.400,252.341 177.969 C 249.727 176.570,246.400 171.331,246.400 168.614 C 246.400 167.905,246.040 166.279,245.600 165.000 C 245.160 163.721,244.800 162.385,244.800 162.031 C 244.800 161.678,244.468 160.761,244.061 159.994 C 243.655 159.227,243.198 158.090,243.045 157.467 C 242.528 155.353,240.572 152.842,236.991 149.694 C 235.313 148.220,237.092 147.371,239.745 148.379 C 241.379 149.000,248.591 143.226,249.468 140.596 C 249.758 139.727,250.191 139.353,251.127 139.161 C 251.825 139.019,252.686 138.660,253.043 138.365 C 253.837 137.705,256.000 139.837,256.000 141.280 C 256.000 141.757,256.341 142.879,256.757 143.774 C 257.174 144.668,257.630 145.908,257.772 146.528 C 258.087 147.910,258.952 147.740,259.127 146.262 C 259.197 145.671,259.410 145.282,259.600 145.400 C 260.404 145.897,260.399 144.643,259.589 142.889 C 257.484 138.330,256.768 137.340,252.700 133.363 C 250.335 131.051,248.400 129.010,248.400 128.828 C 248.400 127.963,243.948 125.204,241.740 124.701 C 236.767 123.567,230.545 126.811,230.924 130.340 C 231.129 132.251,230.768 133.139,228.985 135.111 C 228.333 135.832,227.523 137.247,227.184 138.256 L 226.568 140.090 225.284 139.009 C 224.578 138.415,224.000 137.684,224.000 137.385 C 224.000 137.086,223.144 135.797,222.097 134.521 C 216.418 127.594,214.753 123.666,215.602 119.191 C 216.206 116.006,216.141 115.600,215.032 115.600 C 214.278 115.600,214.004 115.330,213.796 114.381 C 213.605 113.513,213.326 113.196,212.825 113.281 C 211.902 113.437,210.800 112.496,210.800 111.551 C 210.800 111.138,210.620 110.800,210.400 110.800 C 210.180 110.800,210.000 111.452,210.000 112.249 M232.513 208.367 C 233.338 208.680,235.126 211.433,234.734 211.786 C 234.562 211.941,228.486 210.964,227.300 210.590 C 226.313 210.279,226.027 208.617,226.900 208.265 C 227.765 207.916,231.505 207.984,232.513 208.367 M176.866 211.951 C 176.466 212.204,176.558 212.348,177.236 212.525 C 178.212 212.781,178.800 212.574,178.800 211.976 C 178.800 211.510,177.586 211.494,176.866 211.951 M171.905 213.483 C 172.402 213.579,173.122 213.575,173.505 213.475 C 173.887 213.375,173.480 213.296,172.600 213.301 C 171.720 213.305,171.407 213.387,171.905 213.483 M288.000 234.400 C 288.000 234.620,288.360 234.800,288.800 234.800 C 289.240 234.800,289.600 234.620,289.600 234.400 C 289.600 234.180,289.240 234.000,288.800 234.000 C 288.360 234.000,288.000 234.180,288.000 234.400 M201.896 264.260 C 199.847 264.620,199.600 265.814,199.600 275.361 C 199.600 285.834,199.592 285.807,202.957 286.152 C 210.596 286.934,214.878 284.741,216.140 279.400 C 218.713 268.513,212.894 262.329,201.896 264.260 M208.640 268.805 C 211.583 269.834,212.086 279.616,209.286 281.347 C 205.928 283.422,204.800 281.876,204.800 275.200 C 204.800 268.371,205.250 267.621,208.640 268.805 M226.558 268.819 C 221.616 269.208,218.828 272.791,222.252 274.351 C 223.370 274.860,223.561 274.778,225.664 272.880 C 227.807 270.946,230.382 271.706,230.394 274.276 C 230.402 275.872,230.359 275.896,226.545 276.438 C 221.470 277.159,220.000 278.519,220.000 282.490 C 220.000 285.682,224.696 287.457,228.707 285.781 C 229.664 285.381,230.237 285.311,230.327 285.581 C 230.404 285.812,231.428 286.000,232.602 286.000 C 235.314 286.000,235.678 285.146,235.573 279.036 C 235.412 269.664,234.140 268.223,226.558 268.819 M265.121 268.794 C 255.709 269.517,256.175 286.400,265.608 286.400 C 270.269 286.400,273.200 284.619,273.200 281.785 C 273.200 279.683,270.310 279.457,269.000 281.456 C 266.166 285.781,262.296 280.371,263.956 274.406 C 264.596 272.108,267.870 271.814,268.977 273.955 C 270.194 276.310,273.200 275.835,273.200 273.288 C 273.200 270.175,270.039 268.416,265.121 268.794 M240.383 269.423 C 239.922 269.981,239.800 271.575,239.800 277.055 L 239.800 283.982 240.910 285.091 C 242.571 286.750,246.331 286.703,248.571 284.995 L 250.134 283.803 249.860 285.602 C 249.453 288.279,247.854 289.600,245.020 289.600 C 240.229 289.600,238.347 292.909,242.502 294.027 C 251.328 296.404,255.390 290.216,254.808 275.281 C 254.558 268.859,254.444 268.619,251.815 269.004 C 249.707 269.313,249.820 269.032,249.687 274.331 C 249.515 281.184,248.788 282.706,246.240 281.545 C 244.936 280.951,244.857 280.587,244.714 274.533 C 244.651 271.857,244.480 269.546,244.333 269.400 C 243.646 268.712,240.958 268.728,240.383 269.423 M280.000 269.081 C 277.567 269.967,276.516 272.701,278.100 274.023 C 279.345 275.061,279.905 274.986,281.193 273.608 C 284.002 270.600,286.794 271.326,286.455 274.975 C 286.350 276.099,286.261 276.137,282.952 276.453 C 274.615 277.250,273.645 286.387,281.927 286.106 C 286.182 285.962,287.503 285.953,289.072 286.060 C 291.646 286.235,292.100 285.124,292.024 278.833 C 291.954 273.081,291.324 270.692,289.545 269.447 C 288.628 268.804,281.510 268.532,280.000 269.081 M296.500 269.250 C 295.885 269.878,295.790 283.396,296.390 284.974 C 296.718 285.837,297.032 286.000,298.366 286.000 C 300.459 286.000,300.566 285.758,300.800 280.509 C 301.039 275.142,301.647 274.156,305.015 273.674 C 307.173 273.365,307.678 272.565,307.209 270.200 C 306.840 268.340,303.685 268.195,302.414 269.980 C 301.419 271.378,300.800 271.548,300.800 270.424 C 300.800 269.155,297.481 268.249,296.500 269.250 M312.282 269.900 C 308.102 273.079,308.428 282.394,312.817 285.211 C 316.791 287.761,324.795 285.959,324.318 282.623 C 324.146 281.423,321.607 281.283,319.840 282.375 C 317.608 283.755,315.144 282.912,314.706 280.619 C 314.369 278.856,315.361 278.441,320.216 278.314 L 324.600 278.200 324.708 275.600 C 324.908 270.761,322.737 268.804,317.164 268.801 C 314.033 268.800,313.601 268.897,312.282 269.900 M319.515 273.292 C 320.344 275.029,319.591 276.000,317.414 276.000 C 314.768 276.000,314.015 275.105,315.022 273.158 C 315.886 271.487,318.694 271.570,319.515 273.292 M230.321 280.054 C 230.527 282.518,227.126 284.268,225.429 282.571 C 223.706 280.849,225.693 278.269,228.578 278.481 C 230.129 278.595,230.205 278.664,230.321 280.054 M286.638 279.408 C 287.180 281.569,285.771 283.179,283.323 283.195 C 282.434 283.200,281.200 281.862,281.200 280.893 C 281.200 278.704,286.124 277.359,286.638 279.408 " stroke="none" fill="#da237f" fill-rule="evenodd"></path><path id="path3" d="M237.300 67.076 C 238.128 67.292,238.179 67.631,237.503 68.420 C 237.229 68.739,237.341 68.702,237.750 68.338 C 238.579 67.601,238.317 66.775,237.276 66.846 C 236.667 66.888,236.669 66.911,237.300 67.076 M212.953 73.496 C 212.317 74.704,211.879 75.039,210.678 75.234 C 208.613 75.569,208.533 75.775,209.816 77.456 C 210.702 78.618,210.924 79.299,210.854 80.648 L 210.765 82.363 212.627 81.729 C 214.320 81.152,214.609 81.151,215.804 81.721 C 217.425 82.494,217.600 82.331,217.600 80.055 C 217.600 78.627,217.831 78.002,218.693 77.103 C 219.921 75.821,219.550 75.218,217.526 75.206 C 216.733 75.202,216.157 74.784,215.326 73.609 C 213.943 71.653,213.924 71.653,212.953 73.496 M170.637 89.400 C 170.276 89.950,169.626 90.400,169.191 90.400 C 168.250 90.400,168.169 90.910,169.000 91.600 C 169.330 91.874,169.600 92.616,169.600 93.249 C 169.600 94.066,169.798 94.400,170.280 94.400 C 170.809 94.400,170.853 94.293,170.480 93.920 C 169.346 92.786,170.497 90.000,172.099 90.000 C 173.121 90.000,173.228 92.217,172.246 93.062 C 171.425 93.768,171.352 93.973,171.852 94.164 C 173.128 94.654,173.600 94.407,173.600 93.249 C 173.600 92.616,173.870 91.874,174.200 91.600 C 175.069 90.878,174.937 90.400,173.868 90.400 C 173.282 90.400,172.736 90.028,172.400 89.400 C 172.106 88.850,171.736 88.400,171.578 88.400 C 171.421 88.400,170.997 88.850,170.637 89.400 M225.119 94.143 C 224.050 94.956,224.628 96.475,225.949 96.322 C 227.171 96.179,227.538 95.081,226.658 94.201 C 225.944 93.487,225.980 93.488,225.119 94.143 M209.600 110.158 C 209.600 110.898,209.764 111.112,210.200 110.945 C 210.613 110.786,210.800 110.970,210.800 111.534 C 210.800 111.984,210.946 112.443,211.124 112.553 C 211.302 112.663,211.347 112.001,211.224 111.082 C 210.962 109.125,209.600 108.351,209.600 110.158 M212.795 110.900 C 212.792 111.175,212.681 111.805,212.548 112.300 C 212.371 112.962,212.478 113.200,212.953 113.200 C 213.426 113.200,213.600 112.823,213.600 111.800 C 213.600 111.030,213.420 110.400,213.200 110.400 C 212.980 110.400,212.798 110.625,212.795 110.900 M207.200 111.924 C 207.200 113.418,208.296 114.353,208.605 113.122 C 208.754 112.530,208.758 111.855,208.614 111.623 C 208.187 110.932,207.200 111.142,207.200 111.924 M206.000 114.922 C 206.000 115.246,206.374 115.936,206.830 116.456 C 207.287 116.975,207.512 117.130,207.330 116.800 C 207.149 116.470,207.000 115.856,207.000 115.435 C 207.000 115.015,206.775 114.595,206.500 114.502 C 206.225 114.409,206.000 114.598,206.000 114.922 M215.600 115.000 C 215.256 115.415,215.241 115.600,215.551 115.600 C 215.798 115.600,216.003 116.005,216.006 116.500 C 216.011 117.228,216.086 117.285,216.400 116.800 C 217.354 115.323,216.649 113.736,215.600 115.000 M210.468 122.800 C 210.488 123.839,211.118 125.546,211.132 124.600 C 211.138 124.160,210.989 123.440,210.800 123.000 C 210.589 122.510,210.461 122.432,210.468 122.800 M236.800 124.400 C 236.036 124.894,236.858 124.894,238.400 124.400 L 239.400 124.080 238.400 124.046 C 237.850 124.027,237.130 124.187,236.800 124.400 M240.400 124.400 C 240.950 124.576,241.760 124.726,242.200 124.732 L 243.000 124.744 242.200 124.400 C 241.760 124.211,240.950 124.062,240.400 124.068 L 239.400 124.080 240.400 124.400 M232.894 126.638 L 231.400 128.076 233.100 126.771 C 234.035 126.053,234.800 125.406,234.800 125.333 C 234.800 124.958,234.246 125.337,232.894 126.638 M212.012 130.800 C 212.012 131.130,212.187 131.670,212.400 132.000 C 212.745 132.533,212.788 132.533,212.788 132.000 C 212.788 131.670,212.613 131.130,212.400 130.800 C 212.055 130.267,212.012 130.267,212.012 130.800 M252.600 133.200 C 253.459 134.080,254.252 134.800,254.362 134.800 C 254.472 134.800,253.859 134.080,253.000 133.200 C 252.141 132.320,251.348 131.600,251.238 131.600 C 251.128 131.600,251.741 132.320,252.600 133.200 M229.362 134.058 C 228.604 134.912,228.605 134.914,229.500 134.444 C 229.995 134.184,230.400 133.798,230.400 133.586 C 230.400 133.018,230.209 133.105,229.362 134.058 M221.988 134.378 C 222.617 135.553,223.192 135.746,222.663 134.604 C 222.408 134.055,222.059 133.605,221.886 133.603 C 221.713 133.601,221.759 133.950,221.988 134.378 M256.074 136.656 C 256.868 137.566,257.643 138.705,257.796 139.186 C 257.948 139.667,258.160 139.973,258.266 139.867 C 258.617 139.516,257.293 137.420,255.950 136.200 C 254.638 135.008,254.639 135.011,256.074 136.656 M255.068 139.906 C 255.194 140.405,255.455 140.910,255.648 141.030 C 256.196 141.368,256.062 140.636,255.420 139.776 C 254.860 139.027,254.848 139.032,255.068 139.906 M214.762 141.129 C 215.005 141.584,215.401 142.077,215.642 142.226 C 215.956 142.420,215.954 142.262,215.638 141.671 C 215.395 141.216,214.999 140.723,214.758 140.574 C 214.444 140.380,214.446 140.538,214.762 141.129 M247.429 143.519 L 246.287 145.000 247.623 143.713 C 248.358 143.005,248.872 142.338,248.765 142.231 C 248.658 142.125,248.057 142.704,247.429 143.519 M256.806 144.876 C 256.818 145.881,257.587 146.708,257.594 145.724 C 257.597 145.242,257.420 144.736,257.200 144.600 C 256.980 144.464,256.803 144.588,256.806 144.876 M260.240 145.039 C 259.785 146.225,262.640 148.260,264.276 147.916 C 264.820 147.801,264.633 147.585,263.520 147.046 C 262.706 146.651,261.821 146.464,261.552 146.630 C 261.229 146.829,261.139 146.735,261.288 146.349 C 261.410 146.029,261.282 145.454,261.003 145.071 C 260.535 144.432,260.474 144.429,260.240 145.039 M257.606 146.909 C 257.598 147.339,259.651 150.399,259.953 150.405 C 260.089 150.408,260.640 150.529,261.178 150.673 L 262.157 150.934 261.074 149.767 C 260.478 149.125,259.887 148.272,259.759 147.871 C 259.612 147.407,259.298 147.230,258.896 147.385 C 258.548 147.518,258.117 147.396,257.938 147.114 C 257.759 146.831,257.609 146.739,257.606 146.909 M241.700 147.977 C 240.788 148.738,240.554 149.210,241.100 149.187 C 241.265 149.181,241.723 148.731,242.119 148.187 C 242.973 147.014,242.899 146.977,241.700 147.977 M218.598 153.552 C 218.599 155.539,218.722 156.858,218.872 156.483 C 219.214 155.624,219.206 152.103,218.858 150.869 C 218.714 150.357,218.597 151.565,218.598 153.552 M205.033 157.726 C 204.059 158.438,204.370 159.766,205.550 159.934 C 206.945 160.132,207.457 159.428,206.804 158.208 C 206.185 157.050,206.019 157.005,205.033 157.726 M243.200 158.124 C 243.200 158.411,243.468 158.996,243.795 159.424 C 244.338 160.134,244.352 160.089,243.955 158.900 C 243.503 157.543,243.200 157.232,243.200 158.124 M244.806 162.300 C 244.803 162.795,244.980 163.200,245.200 163.200 C 245.701 163.200,245.701 162.776,245.200 162.000 C 244.886 161.515,244.811 161.572,244.806 162.300 M237.263 167.600 C 237.751 168.260,238.330 168.800,238.550 168.800 C 238.770 168.800,238.432 168.260,237.800 167.600 C 237.168 166.940,236.589 166.400,236.513 166.400 C 236.438 166.400,236.775 166.940,237.263 167.600 M232.229 169.829 C 232.081 170.415,232.038 170.972,232.132 171.066 C 232.227 171.160,232.424 170.758,232.571 170.171 C 232.719 169.585,232.762 169.028,232.668 168.934 C 232.573 168.840,232.376 169.242,232.229 169.829 M246.406 169.433 C 246.409 169.855,246.595 170.470,246.818 170.800 C 247.115 171.238,247.152 171.076,246.956 170.200 C 246.627 168.729,246.398 168.410,246.406 169.433 M241.400 172.400 C 241.741 173.060,242.111 173.600,242.221 173.600 C 242.331 173.600,242.141 173.060,241.800 172.400 C 241.459 171.740,241.089 171.200,240.979 171.200 C 240.869 171.200,241.059 171.740,241.400 172.400 M212.252 174.100 C 211.932 175.296,211.984 177.214,212.363 178.184 C 212.552 178.667,212.679 177.861,212.695 176.084 C 212.722 173.023,212.640 172.654,212.252 174.100 M232.068 174.400 C 232.088 175.439,232.718 177.146,232.732 176.200 C 232.738 175.760,232.589 175.040,232.400 174.600 C 232.189 174.110,232.061 174.032,232.068 174.400 M262.416 177.177 C 261.854 177.967,261.201 178.400,260.573 178.400 C 259.462 178.400,259.330 178.873,260.200 179.743 C 260.530 180.073,260.800 180.986,260.800 181.771 C 260.800 183.297,261.140 183.494,262.405 182.704 C 263.038 182.309,263.362 182.309,263.995 182.704 C 265.246 183.485,265.600 183.300,265.600 181.862 C 265.600 181.032,265.904 180.249,266.400 179.800 C 267.512 178.794,267.404 178.471,265.909 178.325 C 265.044 178.241,264.470 177.901,264.169 177.293 C 263.469 175.881,263.345 175.873,262.416 177.177 M252.500 178.032 C 252.885 178.256,253.200 178.791,253.200 179.220 C 253.200 179.785,253.475 180.000,254.200 180.000 C 254.750 180.000,255.200 179.817,255.200 179.594 C 255.200 179.151,252.845 177.596,252.200 177.614 C 251.980 177.620,252.115 177.808,252.500 178.032 M245.634 179.800 C 245.622 180.240,245.787 180.870,246.000 181.200 C 246.514 181.995,246.514 180.996,246.000 179.800 L 245.656 179.000 245.634 179.800 M252.800 181.466 C 252.800 181.706,253.078 182.133,253.418 182.415 C 253.758 182.697,253.952 183.147,253.849 183.415 C 253.657 183.918,254.313 184.800,254.880 184.800 C 255.526 184.800,255.137 183.764,253.984 182.415 C 253.333 181.653,252.800 181.226,252.800 181.466 M213.656 183.600 C 213.656 183.930,213.811 184.560,214.000 185.000 C 214.217 185.504,214.344 185.578,214.344 185.200 C 214.344 184.870,214.189 184.240,214.000 183.800 C 213.783 183.296,213.656 183.222,213.656 183.600 M252.387 185.416 C 251.970 185.918,252.044 186.195,252.811 187.012 C 253.929 188.201,254.400 188.264,254.400 187.224 C 254.400 186.284,253.758 185.799,253.438 186.498 C 253.311 186.774,253.303 186.610,253.420 186.134 C 253.687 185.047,253.056 184.609,252.387 185.416 M246.884 185.934 C 247.060 186.844,248.000 186.984,248.000 186.100 C 248.000 185.676,247.724 185.333,247.384 185.333 C 247.044 185.333,246.819 185.603,246.884 185.934 M249.232 186.056 C 249.503 186.575,249.844 187.259,249.991 187.576 C 250.490 188.656,251.201 188.510,251.168 187.333 C 251.151 186.710,251.046 186.425,250.935 186.700 C 250.618 187.486,250.068 187.285,249.928 186.331 C 249.858 185.854,249.561 185.384,249.269 185.288 C 248.837 185.145,248.830 185.288,249.232 186.056 M234.946 189.800 C 234.947 192.000,235.014 192.849,235.095 191.687 C 235.176 190.524,235.176 188.724,235.093 187.687 C 235.011 186.649,234.945 187.600,234.946 189.800 M215.212 188.800 C 215.212 189.130,215.387 189.670,215.600 190.000 C 215.945 190.533,215.988 190.533,215.988 190.000 C 215.988 189.670,215.813 189.130,215.600 188.800 C 215.255 188.267,215.212 188.267,215.212 188.800 M218.468 200.200 C 218.474 200.640,218.624 201.450,218.800 202.000 L 219.120 203.000 219.132 202.000 C 219.138 201.450,218.989 200.640,218.800 200.200 L 218.456 199.400 218.468 200.200 M219.200 205.510 C 219.200 206.193,219.377 206.862,219.594 206.996 C 219.840 207.148,219.894 206.745,219.737 205.920 C 219.400 204.151,219.200 203.999,219.200 205.510 M228.833 208.147 C 229.305 208.563,232.000 208.793,232.000 208.418 C 232.000 208.188,231.250 208.000,230.333 208.000 C 229.417 208.000,228.742 208.066,228.833 208.147 M202.900 209.497 C 204.605 209.572,207.395 209.572,209.100 209.497 C 210.805 209.422,209.410 209.361,206.000 209.361 C 202.590 209.361,201.195 209.422,202.900 209.497 M186.000 210.639 C 186.000 213.309,190.874 214.724,200.400 214.818 C 212.322 214.935,215.200 215.180,215.200 216.077 C 215.200 219.000,217.331 219.858,223.374 219.368 C 226.352 219.126,226.857 218.973,227.399 218.146 C 227.924 217.344,228.348 217.200,230.186 217.200 C 232.771 217.200,233.094 217.572,232.183 219.492 C 231.225 221.512,231.734 222.168,234.379 222.322 C 235.667 222.397,236.382 222.294,236.234 222.054 C 236.101 221.840,236.594 221.466,237.329 221.223 C 238.064 220.981,239.364 220.426,240.217 219.991 C 242.051 219.056,244.167 218.987,246.965 219.769 C 248.084 220.082,250.710 220.721,252.800 221.189 C 254.890 221.657,257.561 222.315,258.735 222.651 C 260.979 223.294,262.085 223.117,260.229 222.411 C 259.635 222.185,259.018 222.000,258.859 222.000 C 258.699 222.000,257.863 221.640,257.000 221.200 C 256.137 220.760,255.039 220.400,254.559 220.400 C 254.080 220.400,252.903 220.044,251.944 219.609 C 250.985 219.174,249.728 218.814,249.151 218.809 C 248.574 218.804,247.239 218.418,246.185 217.952 L 244.269 217.104 242.524 217.952 C 241.564 218.418,240.436 218.800,240.018 218.800 C 239.599 218.800,238.980 219.077,238.642 219.415 C 238.004 220.053,234.726 221.188,233.500 221.196 C 232.447 221.202,232.645 220.524,234.276 218.533 C 236.463 215.865,235.996 215.380,230.281 214.381 C 227.115 213.827,227.301 213.732,226.849 216.151 C 226.655 217.188,226.379 218.154,226.236 218.297 C 225.694 218.840,218.869 218.456,217.626 217.814 C 216.234 217.094,216.018 216.400,217.186 216.400 C 217.975 216.400,220.800 214.203,220.800 213.590 C 220.800 213.065,218.002 212.288,216.229 212.321 C 215.333 212.338,213.696 212.178,212.590 211.966 C 208.978 211.273,189.332 211.159,188.777 211.827 C 188.131 212.606,187.700 212.547,187.412 211.637 C 187.195 210.954,186.000 210.109,186.000 210.639 M178.600 212.206 C 178.263 212.738,177.990 212.762,176.857 212.364 C 175.507 211.889,173.164 212.182,169.700 213.258 C 167.626 213.902,167.880 215.406,170.233 216.414 C 174.339 218.174,179.466 216.078,179.125 212.780 C 179.024 211.803,178.924 211.695,178.600 212.206 M173.505 213.475 C 173.122 213.575,172.402 213.579,171.905 213.483 C 171.407 213.387,171.720 213.305,172.600 213.301 C 173.480 213.296,173.887 213.375,173.505 213.475 M243.600 214.000 C 243.930 214.213,244.470 214.388,244.800 214.388 C 245.333 214.388,245.333 214.345,244.800 214.000 C 244.470 213.787,243.930 213.612,243.600 213.612 C 243.067 213.612,243.067 213.655,243.600 214.000 M157.780 216.327 C 157.571 216.507,156.410 216.889,155.200 217.177 C 153.990 217.465,152.730 217.922,152.400 218.194 C 151.824 218.669,146.497 220.800,145.887 220.800 C 145.724 220.800,144.828 221.139,143.896 221.554 C 142.963 221.969,141.120 222.719,139.800 223.221 C 134.282 225.320,123.574 231.068,115.600 236.212 C 112.954 237.919,107.200 242.476,107.200 242.865 C 107.200 243.420,107.476 243.285,110.904 241.054 C 115.141 238.296,122.658 234.427,130.000 231.226 C 133.190 229.835,136.563 228.360,137.496 227.949 C 138.428 227.537,139.643 227.200,140.196 227.200 C 140.748 227.200,141.200 226.999,141.200 226.753 C 141.200 226.508,141.548 226.398,141.972 226.509 C 142.414 226.624,143.093 226.387,143.556 225.955 C 144.002 225.540,144.914 225.200,145.583 225.200 C 146.281 225.200,147.154 224.846,147.628 224.372 C 148.084 223.916,148.822 223.473,149.269 223.387 C 149.716 223.301,150.288 223.070,150.541 222.875 C 150.793 222.679,152.027 222.320,153.283 222.076 C 154.562 221.828,155.926 221.274,156.383 220.817 C 156.887 220.313,157.724 220.000,158.567 220.000 C 160.219 220.000,160.447 219.485,159.670 217.507 C 159.089 216.026,158.533 215.679,157.780 216.327 M254.400 217.200 C 254.730 217.413,255.270 217.588,255.600 217.588 C 256.133 217.588,256.133 217.545,255.600 217.200 C 255.270 216.987,254.730 216.812,254.400 216.812 C 253.867 216.812,253.867 216.855,254.400 217.200 M264.400 224.400 C 264.730 224.613,265.270 224.788,265.600 224.788 C 266.133 224.788,266.133 224.745,265.600 224.400 C 265.270 224.187,264.730 224.012,264.400 224.012 C 263.867 224.012,263.867 224.055,264.400 224.400 M285.322 231.363 C 285.940 231.933,286.645 232.400,286.889 232.400 C 287.406 232.400,287.423 232.415,285.600 231.234 L 284.200 230.327 285.322 231.363 M287.600 233.200 C 287.600 233.420,287.285 233.603,286.900 233.606 C 286.319 233.611,286.299 233.675,286.781 233.980 C 287.101 234.182,287.866 234.247,288.481 234.124 C 289.176 233.985,289.600 234.071,289.600 234.350 C 289.600 234.597,289.285 234.801,288.900 234.802 C 288.381 234.804,288.459 234.944,289.200 235.340 C 291.108 236.360,293.402 237.687,293.800 238.000 C 294.804 238.790,297.316 240.017,297.518 239.815 C 297.802 239.531,297.130 239.006,292.113 235.586 C 287.847 232.677,287.600 232.547,287.600 233.200 M250.430 256.358 C 249.866 257.150,249.202 257.600,248.596 257.600 C 247.253 257.600,246.971 258.327,247.957 259.246 C 248.476 259.730,248.800 260.525,248.800 261.316 L 248.800 262.600 251.400 262.600 L 254.000 262.600 254.000 261.361 C 254.000 260.680,254.356 259.712,254.792 259.210 C 255.721 258.138,255.524 257.600,254.205 257.600 C 253.621 257.600,252.886 257.124,252.286 256.358 L 251.314 255.116 250.430 256.358 M200.070 264.926 C 198.907 266.164,198.700 284.034,199.833 285.424 C 200.456 286.189,200.460 286.188,200.133 285.400 C 199.950 284.960,199.748 280.599,199.685 275.708 C 199.558 265.792,199.787 264.606,201.896 264.287 C 202.997 264.120,202.997 264.120,201.970 264.060 C 201.351 264.024,200.592 264.370,200.070 264.926 M212.617 265.545 C 213.286 265.953,214.321 266.867,214.917 267.574 C 215.513 268.282,215.994 268.713,215.987 268.531 C 215.954 267.716,212.714 264.799,211.846 264.801 C 211.601 264.802,211.948 265.137,212.617 265.545 M226.000 268.405 C 225.292 268.635,225.817 268.728,227.800 268.724 C 229.340 268.721,231.140 268.823,231.800 268.950 C 232.626 269.110,232.502 269.008,231.400 268.622 C 229.618 267.998,227.513 267.913,226.000 268.405 M264.800 268.400 C 263.989 268.660,264.163 268.728,265.724 268.760 C 266.913 268.785,267.553 268.647,267.400 268.400 C 267.116 267.941,266.235 267.941,264.800 268.400 M282.400 268.400 C 281.733 268.614,282.532 268.720,284.800 268.720 C 287.068 268.720,287.867 268.614,287.200 268.400 C 286.650 268.224,285.570 268.080,284.800 268.080 C 284.030 268.080,282.950 268.224,282.400 268.400 M304.200 268.400 C 303.561 268.675,303.707 268.749,304.924 268.772 C 305.844 268.789,306.349 268.642,306.200 268.400 C 305.908 267.928,305.299 267.928,304.200 268.400 M315.600 268.400 C 314.897 268.625,315.432 268.720,317.400 268.720 C 319.368 268.720,319.903 268.625,319.200 268.400 C 318.650 268.224,317.840 268.080,317.400 268.080 C 316.960 268.080,316.150 268.224,315.600 268.400 M222.500 269.470 C 222.005 269.815,221.600 270.287,221.600 270.519 C 221.600 270.750,222.005 270.571,222.500 270.121 C 222.995 269.670,223.670 269.203,224.000 269.082 C 224.533 268.888,224.533 268.862,224.000 268.853 C 223.670 268.847,222.995 269.124,222.500 269.470 M239.823 269.689 C 239.157 270.639,238.934 281.381,239.547 282.939 C 239.707 283.346,239.763 280.887,239.671 277.476 C 239.536 272.442,239.621 271.041,240.122 270.037 C 240.844 268.588,240.706 268.428,239.823 269.689 M204.873 275.000 C 204.840 278.080,204.944 280.809,205.106 281.064 C 205.268 281.319,205.351 279.429,205.291 276.864 C 205.121 269.640,204.941 268.834,204.873 275.000 M216.034 270.000 C 216.046 270.330,216.211 270.960,216.400 271.400 L 216.744 272.200 216.766 271.400 C 216.778 270.960,216.613 270.330,216.400 270.000 C 216.055 269.467,216.015 269.467,216.034 270.000 M254.710 274.135 C 254.890 280.776,255.072 281.281,255.140 275.324 C 255.173 272.422,255.063 269.962,254.895 269.859 C 254.727 269.755,254.644 271.679,254.710 274.135 M260.255 270.655 C 259.675 271.235,259.200 271.895,259.200 272.121 C 259.200 272.348,259.245 272.457,259.300 272.365 C 259.355 272.272,259.929 271.612,260.575 270.898 C 261.983 269.342,261.746 269.163,260.255 270.655 M290.978 271.423 C 291.430 272.399,291.856 273.030,291.924 272.826 C 292.065 272.404,290.975 270.155,290.480 269.850 C 290.302 269.739,290.525 270.447,290.978 271.423 M307.273 271.238 C 307.288 272.330,307.413 272.707,307.642 272.346 C 308.103 271.618,308.093 270.105,307.625 269.815 C 307.413 269.685,307.260 270.305,307.273 271.238 M295.764 277.400 C 295.763 281.140,295.823 282.724,295.897 280.920 C 295.971 279.115,295.972 276.055,295.898 274.120 C 295.825 272.184,295.764 273.660,295.764 277.400 M281.427 273.400 C 280.657 274.170,280.156 274.797,280.313 274.794 C 280.730 274.785,281.274 274.336,282.370 273.097 C 283.760 271.525,283.084 271.742,281.427 273.400 M224.815 273.616 C 224.053 274.267,223.614 274.800,223.839 274.800 C 224.323 274.800,225.232 274.074,225.969 273.100 C 226.713 272.116,226.414 272.249,224.815 273.616 M235.382 278.200 C 235.392 281.500,235.246 284.650,235.059 285.200 C 234.728 286.168,234.737 286.174,235.346 285.400 C 236.014 284.550,236.237 275.338,235.642 273.200 C 235.489 272.650,235.371 274.900,235.382 278.200 M273.260 273.510 C 273.195 274.928,271.849 275.824,270.538 275.321 C 270.087 275.148,269.963 275.217,270.158 275.532 C 271.090 277.041,273.779 275.268,273.490 273.335 C 273.326 272.243,273.318 272.249,273.260 273.510 M258.649 273.415 C 258.512 273.773,258.415 274.366,258.434 274.733 C 258.453 275.100,258.627 274.869,258.821 274.220 C 259.198 272.958,259.065 272.333,258.649 273.415 M305.400 273.600 C 304.520 273.758,304.010 273.912,304.267 273.943 C 304.524 273.974,304.979 274.094,305.279 274.209 C 305.578 274.324,306.178 274.149,306.611 273.822 C 307.045 273.494,307.310 273.245,307.200 273.269 C 307.090 273.294,306.280 273.442,305.400 273.600 M324.752 275.800 L 324.600 278.200 320.000 278.420 L 315.400 278.640 320.020 278.720 C 325.110 278.808,325.625 278.613,325.560 276.620 C 325.471 273.884,324.909 273.314,324.752 275.800 M224.400 276.416 C 223.982 276.697,224.467 276.739,226.000 276.555 C 227.210 276.410,228.275 276.226,228.367 276.146 C 228.770 275.793,224.938 276.054,224.400 276.416 M282.500 276.287 C 283.105 276.378,284.095 276.378,284.700 276.287 C 285.305 276.195,284.810 276.120,283.600 276.120 C 282.390 276.120,281.895 276.195,282.500 276.287 M278.229 277.409 C 277.805 277.729,277.535 278.068,277.629 278.161 C 277.723 278.255,278.225 277.987,278.744 277.566 C 279.838 276.679,279.379 276.539,278.229 277.409 M300.946 280.600 C 300.947 282.800,301.014 283.649,301.095 282.487 C 301.176 281.324,301.176 279.524,301.093 278.487 C 301.011 277.449,300.945 278.400,300.946 280.600 M216.200 278.800 C 216.048 279.491,216.014 280.147,216.124 280.257 C 216.234 280.367,216.448 279.891,216.600 279.200 C 216.752 278.509,216.786 277.853,216.676 277.743 C 216.566 277.633,216.352 278.109,216.200 278.800 M263.693 279.200 C 263.693 279.970,263.775 280.285,263.876 279.900 C 263.976 279.515,263.976 278.885,263.876 278.500 C 263.775 278.115,263.693 278.430,263.693 279.200 M276.465 279.417 C 275.891 280.678,275.855 283.463,276.409 283.806 C 276.676 283.971,276.735 283.526,276.578 282.529 C 276.445 281.688,276.536 280.480,276.779 279.845 C 277.338 278.388,277.088 278.049,276.465 279.417 M258.431 280.451 C 258.351 282.127,260.210 284.899,262.000 285.774 C 262.330 285.935,261.977 285.531,261.215 284.874 C 260.394 284.167,259.551 282.891,259.146 281.741 C 258.770 280.673,258.448 280.093,258.431 280.451 M309.645 281.000 C 309.636 281.440,309.886 282.250,310.200 282.800 C 310.913 284.047,310.913 283.451,310.200 281.600 C 309.847 280.683,309.655 280.476,309.645 281.000 M321.067 281.300 C 320.483 281.726,320.664 281.800,322.291 281.800 C 324.097 281.800,324.199 281.858,324.187 282.870 C 324.179 283.459,324.314 283.853,324.487 283.747 C 325.048 283.400,324.817 282.140,324.069 281.462 C 323.198 280.674,322.013 280.610,321.067 281.300 M254.868 282.600 C 254.826 283.260,254.699 284.520,254.585 285.400 C 254.406 286.793,254.435 286.873,254.808 286.015 C 255.044 285.474,255.171 284.214,255.091 283.215 C 254.999 282.085,254.915 281.853,254.868 282.600 M213.871 283.769 C 213.296 284.302,212.446 284.858,211.983 285.005 C 211.519 285.153,211.227 285.360,211.333 285.466 C 211.628 285.761,213.708 284.586,214.563 283.641 C 215.599 282.496,215.157 282.578,213.871 283.769 M271.925 284.400 C 271.346 285.060,271.008 285.600,271.174 285.600 C 271.491 285.600,272.479 284.551,272.963 283.700 C 273.439 282.863,273.034 283.136,271.925 284.400 M291.482 284.930 C 291.337 285.309,290.809 285.783,290.309 285.984 C 289.809 286.185,289.670 286.355,290.000 286.362 C 290.872 286.380,292.111 285.334,291.915 284.746 C 291.802 284.405,291.661 284.465,291.482 284.930 M312.486 285.400 C 313.295 285.950,314.099 286.400,314.272 286.400 C 314.444 286.400,313.923 285.950,313.114 285.400 C 312.305 284.850,311.501 284.400,311.328 284.400 C 311.156 284.400,311.677 284.850,312.486 285.400 M300.272 285.357 C 300.144 285.690,299.379 286.018,298.522 286.107 L 297.000 286.266 298.451 286.333 C 299.785 286.395,301.247 285.513,300.706 284.973 C 300.592 284.859,300.397 285.032,300.272 285.357 M201.505 286.283 C 202.002 286.379,202.722 286.375,203.105 286.275 C 203.487 286.175,203.080 286.096,202.200 286.101 C 201.320 286.105,201.007 286.187,201.505 286.283 M207.700 286.276 C 208.085 286.376,208.715 286.376,209.100 286.276 C 209.485 286.175,209.170 286.093,208.400 286.093 C 207.630 286.093,207.315 286.175,207.700 286.276 M231.900 286.282 C 232.395 286.378,233.205 286.378,233.700 286.282 C 234.195 286.187,233.790 286.109,232.800 286.109 C 231.810 286.109,231.405 286.187,231.900 286.282 M248.980 287.632 C 248.833 287.870,248.147 288.410,247.456 288.831 C 246.765 289.252,246.422 289.598,246.694 289.599 C 247.206 289.600,250.013 287.232,249.524 287.212 C 249.372 287.205,249.127 287.395,248.980 287.632 M240.623 290.489 C 240.280 290.978,240.007 291.653,240.016 291.989 C 240.024 292.325,240.279 292.031,240.581 291.336 C 240.884 290.641,241.462 289.987,241.866 289.882 C 242.492 289.721,242.500 289.686,241.923 289.646 C 241.550 289.621,240.965 290.000,240.623 290.489 M250.200 292.827 C 249.540 293.250,249.205 293.597,249.456 293.598 C 249.706 293.599,250.336 293.246,250.856 292.813 C 252.045 291.823,251.759 291.829,250.200 292.827 " stroke="none" fill="#c85c58" fill-rule="evenodd"></path><path id="path4" d="M233.666 65.416 C 233.408 65.980,232.658 66.630,231.999 66.860 C 230.687 67.318,230.468 68.027,231.400 68.800 C 231.730 69.074,232.000 69.918,232.000 70.676 C 232.000 71.929,232.082 72.026,232.900 71.748 C 233.816 71.436,234.919 71.404,236.000 71.659 C 236.435 71.761,236.634 71.396,236.722 70.330 C 236.790 69.522,237.105 68.645,237.422 68.381 C 238.187 67.747,238.156 67.200,237.354 67.200 C 236.999 67.200,236.129 66.568,235.421 65.795 L 234.133 64.389 233.666 65.416 M203.380 131.715 C 203.228 132.108,202.469 132.695,201.693 133.019 C 200.363 133.575,200.321 133.649,200.942 134.335 C 201.304 134.736,201.600 135.505,201.600 136.046 C 201.600 136.970,201.730 137.029,203.800 137.029 C 205.916 137.029,206.000 136.988,206.000 135.963 C 206.000 135.377,206.270 134.674,206.600 134.400 C 207.478 133.671,207.334 133.200,206.233 133.200 C 205.641 133.200,204.955 132.775,204.462 132.100 C 203.746 131.122,203.626 131.079,203.380 131.715 M178.398 215.018 C 177.062 216.846,173.139 217.635,170.619 216.582 C 168.741 215.797,169.057 216.644,171.176 218.073 C 172.046 218.660,172.677 219.491,172.896 220.338 C 173.185 221.452,173.390 221.640,174.121 221.461 C 174.605 221.343,176.620 221.132,178.600 220.992 C 180.580 220.852,184.003 220.485,186.207 220.176 C 191.374 219.450,213.685 219.315,216.600 219.991 C 217.700 220.246,220.233 220.534,222.230 220.632 C 224.226 220.729,226.810 221.055,227.971 221.356 C 230.189 221.932,231.598 221.814,231.602 221.053 C 231.604 220.804,231.880 220.072,232.217 219.426 C 233.144 217.648,232.742 217.200,230.222 217.200 C 228.347 217.200,227.926 217.341,227.399 218.146 C 226.857 218.973,226.352 219.126,223.374 219.368 C 217.331 219.858,215.200 219.000,215.200 216.077 C 215.200 215.179,212.298 214.933,200.400 214.821 C 196.550 214.785,193.048 214.651,192.619 214.525 C 191.883 214.308,191.877 214.334,192.519 214.976 C 194.875 217.332,192.801 218.167,184.837 218.069 C 179.190 217.999,179.525 218.129,179.224 215.893 C 179.006 214.276,178.968 214.237,178.398 215.018 M159.769 217.854 C 159.929 218.264,160.067 218.690,160.077 218.800 C 160.160 219.736,159.836 220.000,158.600 220.000 C 157.724 220.000,156.894 220.306,156.383 220.817 C 155.926 221.274,154.562 221.828,153.283 222.076 C 152.027 222.320,150.793 222.679,150.541 222.875 C 150.288 223.070,149.716 223.301,149.269 223.387 C 148.822 223.473,148.084 223.916,147.628 224.372 C 147.106 224.894,146.283 225.200,145.400 225.200 C 144.630 225.200,144.000 225.362,144.000 225.560 C 144.000 225.759,140.850 227.494,137.000 229.417 C 128.018 233.903,127.459 234.954,135.760 231.749 C 142.265 229.237,147.922 227.338,152.800 226.029 C 153.790 225.763,155.140 225.389,155.800 225.197 C 156.460 225.005,158.170 224.640,159.600 224.387 C 161.030 224.134,162.876 223.734,163.702 223.498 C 164.528 223.263,165.315 223.182,165.452 223.318 C 165.726 223.593,168.616 222.221,168.970 221.648 C 169.094 221.449,168.707 221.163,168.110 221.013 C 166.741 220.670,162.794 218.846,162.000 218.190 C 160.828 217.222,159.442 217.013,159.769 217.854 M239.788 220.144 C 239.354 220.442,238.323 220.906,237.496 221.175 C 235.137 221.943,236.086 222.529,241.400 223.585 C 244.591 224.219,249.510 225.431,254.200 226.738 C 255.080 226.983,257.150 227.559,258.800 228.018 C 260.450 228.477,262.520 229.176,263.400 229.571 C 264.280 229.967,265.711 230.420,266.580 230.578 C 267.448 230.737,268.523 231.121,268.969 231.433 C 269.862 232.059,271.600 232.201,271.600 231.649 C 271.600 231.455,271.015 231.064,270.300 230.779 C 269.585 230.494,268.550 229.959,268.000 229.591 C 267.450 229.223,266.640 228.818,266.200 228.692 C 265.760 228.566,263.420 227.617,261.000 226.583 C 254.070 223.624,247.795 221.382,243.800 220.437 C 242.700 220.177,241.524 219.882,241.188 219.783 C 240.851 219.683,240.221 219.846,239.788 220.144 M272.220 232.355 C 272.429 232.550,273.050 232.828,273.600 232.972 L 274.600 233.233 273.600 232.631 C 272.486 231.959,271.609 231.784,272.220 232.355 " stroke="none" fill="#65b62b" fill-rule="evenodd"></path></g></svg>